<?xml version="1.0" standalone="no"?>
<!DOCTYPE svg PUBLIC "-//W3C//DTD SVG 20010904//EN"
 "http://www.w3.org/TR/2001/REC-SVG-20010904/DTD/svg10.dtd">
<svg version="1.0" xmlns="http://www.w3.org/2000/svg"
 width="120.000000pt" height="120.000000pt" viewBox="0 0 120.000000 120.000000"
 preserveAspectRatio="xMidYMid meet">
<metadata>
Created by potrace 1.11, written by Peter Selinger 2001-2013
</metadata>
<g transform="translate(0.000000,120.000000) scale(0.100000,-0.100000)"
fill="#000000" stroke="none">
<path d="M597 1173 c-3 -5 -5 -22 -5 -39 0 -16 -5 -47 -11 -70 -10 -38 -14
-41 -58 -51 -55 -13 -69 -6 -81 41 -6 21 -14 31 -28 31 -27 0 -33 -45 -7 -51
11 -3 25 -14 32 -26 10 -16 10 -23 -3 -37 -9 -10 -21 -32 -27 -49 -6 -19 -18
-32 -27 -32 -33 0 -211 -63 -268 -94 -33 -18 -70 -48 -82 -67 -21 -31 -23 -41
-17 -104 3 -38 17 -135 31 -214 35 -209 69 -272 157 -290 31 -7 32 -9 30 -54
-4 -61 16 -62 45 -2 20 42 23 44 54 38 46 -9 423 -10 483 0 l51 7 22 -45 c33
-69 51 -60 33 17 -8 35 -8 37 31 54 67 30 107 91 160 243 51 149 71 248 72
361 1 93 -2 109 -22 142 -57 91 -190 115 -435 78 -58 -9 -60 -9 -84 20 -14 17
-31 30 -40 30 -9 0 -12 6 -9 18 3 9 8 31 12 47 4 17 13 38 21 47 8 9 13 25 11
35 -3 19 -33 30 -41 16z m278 -323 c67 -32 90 -87 81 -195 -11 -145 -74 -351
-136 -441 -42 -60 -82 -69 -310 -68 -342 2 -361 16 -410 304 -11 63 -20 142
-20 176 0 55 3 63 33 91 17 17 51 40 75 52 76 38 262 80 472 105 71 8 171 -3
215 -24z m255 -120 c-8 -5 -10 -10 -4 -10 6 0 10 -15 10 -32 l-1 -33 -70 -6
-70 -5 75 -4 75 -3 -55 -7 -55 -7 53 -1 c79 -3 54 -22 -28 -22 -38 0 -72 5
-75 10 -3 6 2 10 12 11 17 0 17 1 0 8 -10 4 -18 11 -18 16 0 5 8 12 18 16 13
6 14 8 3 8 -10 1 -16 13 -17 36 l-2 35 82 0 c57 0 77 -3 67 -10z m-106 -296
c21 -8 21 -48 0 -65 -31 -26 -70 25 -44 56 14 17 21 18 44 9z m-29 -139 c0
-26 -3 -30 -29 -30 -36 0 -56 26 -36 50 8 9 24 15 39 13 22 -2 26 -8 26 -33z"/>
<path d="M517 773 c-4 -3 -7 -12 -7 -20 0 -17 26 -17 33 1 8 21 -11 35 -26 19z"/>
<path d="M386 703 c-8 -37 -13 -70 -10 -75 7 -11 34 -10 34 2 0 6 8 5 20 -2
16 -10 23 -10 37 4 15 16 17 16 28 1 8 -11 18 -14 31 -8 11 4 14 9 7 12 -8 3
-8 14 -2 39 6 19 7 39 4 44 -13 21 -33 9 -39 -23 -5 -29 -36 -57 -61 -57 -14
0 -2 17 18 25 32 14 31 61 -1 58 -14 -2 -22 2 -21 10 3 26 -1 37 -15 37 -9 0
-20 -23 -30 -67z m48 -18 c-4 -8 -8 -15 -10 -15 -2 0 -4 7 -4 15 0 8 4 15 10
15 5 0 7 -7 4 -15z"/>
<path d="M735 726 c-30 -30 -31 -72 -2 -90 39 -25 106 51 81 91 -15 24 -34 28
-34 6 0 -27 -21 -96 -27 -89 -3 3 0 26 6 52 7 25 10 49 7 51 -3 3 -17 -7 -31
-21z"/>
<path d="M606 694 c-6 -50 -2 -64 18 -64 14 0 31 84 20 101 -14 23 -32 6 -38
-37z"/>
<path d="M661 713 c-1 -16 -3 -39 -4 -53 -1 -18 3 -26 18 -28 18 -2 20 4 22
53 2 48 0 55 -16 55 -13 0 -19 -8 -20 -27z"/>
<path d="M552 688 c-10 -47 -7 -58 12 -58 14 0 39 77 30 92 -13 21 -34 5 -42
-34z"/>
<path d="M206 701 c-11 -12 -16 -31 -14 -53 l3 -33 72 -2 c81 -2 99 9 90 56
-3 15 -1 33 6 40 8 8 5 11 -15 11 -29 0 -41 -20 -32 -55 6 -24 -10 -43 -21
-25 -4 6 -12 4 -22 -5 -20 -21 -49 -15 -45 9 6 30 22 69 28 64 2 -3 0 -17 -6
-32 -9 -24 -8 -26 9 -17 24 13 32 36 18 50 -17 17 -52 13 -71 -8z"/>
</g>
</svg>
